<svg xmlns="http://www.w3.org/2000/svg" viewBox="0 0 64 80" x="0px" y="0px"><circle cx="41" cy="52" r="2"/><path d="M25,56c-3.354,0-6.871-.5-9-1.567V58c.15.54,3.149,2,9,2,4.277,0,7.023-.78,8.254-1.416l-1.878-3.255A28.431,28.431,0,0,1,25,56Z"/><path d="M16,46c.15.54,3.149,2,9,2a23.119,23.119,0,0,0,7.359-1.034L33.84,44.4l.16.093V42.433c-.014.007-.031.012-.045.019q-.361.178-.773.335c-.073.028-.153.053-.229.081-.212.076-.43.149-.657.217-.108.032-.217.062-.328.092q-.325.09-.667.169c-.109.026-.217.052-.328.075q-.428.092-.874.168l-.168.031q-.534.087-1.09.154l-.32.034c-.271.03-.543.057-.819.079-.129.011-.258.021-.388.03-.269.018-.539.034-.81.046l-.355.016c-.384.013-.767.021-1.149.021s-.765-.008-1.149-.021l-.355-.016c-.271-.012-.541-.028-.81-.046-.13-.009-.259-.019-.388-.03-.276-.022-.548-.049-.819-.079l-.32-.034q-.555-.068-1.09-.154l-.168-.031q-.447-.077-.874-.168c-.111-.023-.219-.049-.328-.075q-.342-.079-.667-.169c-.111-.03-.22-.06-.328-.092-.227-.068-.445-.141-.657-.217-.076-.028-.156-.053-.229-.081q-.411-.156-.773-.335c-.014-.007-.031-.012-.045-.019Z"/><path d="M22.94,41.936c.642.041,1.329.064,2.06.064.364,0,.717-.006,1.06-.016.1,0,.2-.01.3-.015.234-.009.468-.018.691-.032.137-.009.264-.022.4-.032.177-.014.358-.026.528-.042.14-.014.271-.031.407-.046.152-.017.309-.033.454-.052s.266-.039.4-.059.267-.038.393-.059.263-.048.393-.072c.112-.021.228-.04.335-.062.132-.027.254-.056.379-.085.093-.021.191-.041.28-.063.126-.031.242-.063.36-.095.078-.021.161-.041.236-.063.117-.033.223-.068.332-.1.064-.021.134-.041.2-.062.106-.035.2-.071.3-.107.054-.02.113-.04.164-.06.092-.036.173-.072.256-.107l.141-.06c.077-.035.143-.069.211-.1.039-.02.084-.04.121-.06.062-.034.113-.066.166-.1.033-.02.07-.04.1-.059.047-.031.084-.06.123-.089s.055-.039.076-.057.054-.052.079-.077.04-.038.055-.056a.433.433,0,0,0,.038-.062.343.343,0,0,0,.026-.05c-.143-.389-1.6-1.186-4.377-1.647l-.08-.011c-.228-.037-.461-.073-.707-.1-.092-.012-.192-.021-.287-.033-.187-.022-.372-.045-.569-.064-.14-.013-.29-.023-.435-.035-.163-.013-.321-.028-.49-.039-.206-.013-.423-.021-.638-.03-.119-.005-.231-.013-.352-.017-.343-.01-.7-.016-1.06-.016-5.821,0-8.817,1.445-9,2.005C16.149,40.481,18.46,41.65,22.94,41.936Z"/><path d="M25,54a20.442,20.442,0,0,0,8.05-1.315c-.021-.229-.05-.46-.05-.685a7.739,7.739,0,0,1,.081-1.107L30.84,49.6l.094-.163A29.432,29.432,0,0,1,25,50c-3.358,0-6.873-.505-9-1.573V52h0C16.15,52.54,19.149,54,25,54Z"/><path d="M47.428,47.134l-1.769,1.021-.542-.51a6.014,6.014,0,0,0-2.4-1.393L42,46.04V44H40v2.04l-.715.212a6.014,6.014,0,0,0-2.4,1.393l-.542.51-1.769-1.021-1,1.732,1.768,1.021-.171.724a5.793,5.793,0,0,0,0,2.778l.171.724-1.768,1.021,1,1.732,1.769-1.021.542.51a6.014,6.014,0,0,0,2.4,1.393L40,57.96V60h2V57.96l.715-.212a6.014,6.014,0,0,0,2.4-1.393l.542-.51,1.769,1.021,1-1.732L46.66,54.113l.171-.724a5.793,5.793,0,0,0,0-2.778l-.171-.724,1.768-1.021ZM41,56a4,4,0,1,1,4-4A4,4,0,0,1,41,56Z"/><rect x="28" y="4" width="8" height="12"/><path d="M31.29,19.71A.99.99,0,0,1,31,19a1.045,1.045,0,0,1,.29-.71,1.7,1.7,0,0,1,.149-.12.782.782,0,0,1,.181-.09.636.636,0,0,1,.18-.06,1.018,1.018,0,0,1,.91.27A1.05,1.05,0,0,1,33,19a.99.99,0,0,1-1,1h4V18H28v2h4A.991.991,0,0,1,31.29,19.71Z"/><polygon points="51 28 33 28 33 24 31 24 31 28 13 28 13 24 11 24 11 30 31 30 31 34 33 34 33 30 53 30 53 24 51 24 51 28"/><rect x="10" y="18" width="4" height="2"/><rect x="4" y="14" width="16" height="2"/><rect x="4" y="4" width="16" height="8"/><path d="M44,4V8H60V4Zm2.71,2.71a1.169,1.169,0,0,1-.33.21.942.942,0,0,1-.76,0,1.155,1.155,0,0,1-.33-.21.99.99,0,0,1-.21-1.09,1.032,1.032,0,0,1,.21-.33,1,1,0,0,1,.9-.27.609.609,0,0,1,.191.06.568.568,0,0,1,.17.09,1,1,0,0,1,.16.12A1.05,1.05,0,0,1,47,6,.994.994,0,0,1,46.71,6.71Zm3.21-.33a1.169,1.169,0,0,1-.21.33,1.169,1.169,0,0,1-.33.21.99.99,0,0,1-1.09-.21,1.169,1.169,0,0,1-.21-.33A.838.838,0,0,1,48,6a1,1,0,0,1,.08-.38,1.032,1.032,0,0,1,.21-.33,1.047,1.047,0,0,1,1.42,0,1.155,1.155,0,0,1,.21.33.942.942,0,0,1,0,.76Zm3,0a1.169,1.169,0,0,1-.21.33A1.033,1.033,0,0,1,52,7a1,1,0,0,1-.38-.08,1.155,1.155,0,0,1-.33-.21,1.169,1.169,0,0,1-.21-.33.943.943,0,0,1,0-.76.933.933,0,0,1,.21-.33,1.7,1.7,0,0,1,.149-.12.782.782,0,0,1,.181-.09.636.636,0,0,1,.18-.06.949.949,0,0,1,.58.06,1.169,1.169,0,0,1,.33.21.933.933,0,0,1,.21.33.942.942,0,0,1,0,.76Z"/><rect x="44" y="10" width="16" height="10"/><text x="0" y="79" fill="#000000" font-size="5px" font-weight="bold" font-family="'Helvetica Neue', Helvetica, Arial-Unicode, Arial, Sans-serif">Created by mynamepong</text><text x="0" y="84" fill="#000000" font-size="5px" font-weight="bold" font-family="'Helvetica Neue', Helvetica, Arial-Unicode, Arial, Sans-serif">from the Noun Project</text></svg>